<svg xmlns="http://www.w3.org/2000/svg" viewBox="0 0 56 56"><defs><style>.cls-1{fill:none;}</style></defs><title>ic_behance</title><g id="background"><rect class="cls-1" width="48" height="48"/></g><g id="icon"><path d="M47,34.48a7.91,7.91,0,0,1-8.05,5.62c-5.17,0-9.13-2.38-9.13-9.63a8.29,8.29,0,0,1,7.64-8.89,8.67,8.67,0,0,1,1.14,0c3.62,0,8.61,1.66,8.61,9.7v.92H34.63a3.94,3.94,0,0,0,3.66,4.21,3.53,3.53,0,0,0,.65,0A3.09,3.09,0,0,0,42,34.48Zm-4.75-5.16a3.86,3.86,0,0,0-3.72-3.94c-2.27,0-3.48,1.62-3.75,3.94Z"/><rect x="33.76" y="17" width="9.6" height="2.72"/><path d="M24.75,26.83A4.74,4.74,0,0,0,27.66,22c0-2.45-1.49-6.09-7.31-6.09H8.8V39.64H18.86c4.86,0,6.15-.83,7.51-2.15a6.89,6.89,0,0,0,2.05-4.9A5.54,5.54,0,0,0,24.75,26.83ZM13.6,19.72h6.72a2.88,2.88,0,0,1,0,5.76H13.6Zm7.2,15.36H13.6V29.32h7.2a2.88,2.88,0,0,1,0,5.76Z"/></g></svg>