<svg xmlns="http://www.w3.org/2000/svg" viewBox="0 0 56 56"><defs><style>.cls-1{fill:none;}</style></defs><title>ic_dribbble</title><g id="background"><rect class="cls-1" width="48" height="48"/></g><g id="icon"><path d="M28,8.8A19.2,19.2,0,1,0,47.2,28,19.2,19.2,0,0,0,28,8.8ZM44,27.74a29.94,29.94,0,0,0-7.17-.93,24.81,24.81,0,0,0-3.65.27,2.3,2.3,0,0,0-.28.06c-.4-1-.83-1.92-1.28-2.86a24.16,24.16,0,0,0,8.81-6.35A16,16,0,0,1,44,27.74ZM38.09,15.6a21.16,21.16,0,0,1-7.94,5.8,63,63,0,0,0-5.88-8.94A15.82,15.82,0,0,1,38.09,15.6Zm-17-2a59.82,59.82,0,0,1,6,8.91,48.83,48.83,0,0,1-14,1.78l-.62,0A16,16,0,0,1,21.06,13.61ZM12,28c0-.18,0-.36,0-.54.34,0,.68,0,1,0a51.28,51.28,0,0,0,15.52-2.1c.39.82.77,1.65,1.13,2.49A25.84,25.84,0,0,0,16,38.5,16,16,0,0,1,12,28Zm6.31,12.7A22.88,22.88,0,0,1,30.9,30.86a59.9,59.9,0,0,1,3,12A15.86,15.86,0,0,1,18.31,40.7Zm18.6.58a63.11,63.11,0,0,0-2.84-11.07A22.44,22.44,0,0,1,36.91,30a26.93,26.93,0,0,1,6.8.93,16,16,0,0,1-6.8,10.32Z"/></g></svg>