<svg xmlns="http://www.w3.org/2000/svg" viewBox="0 0 56 56"><defs><style>.cls-1{fill:none;}.cls-2{fill-rule:evenodd;}</style></defs><title>ic_github</title><g id="background"><rect class="cls-1" width="48" height="48"/></g><g id="icon"><path class="cls-2" d="M28,9.27a19.2,19.2,0,0,0-6.07,37.42c1,.18,1.31-.41,1.31-.92s0-1.67,0-3.27c-5.35,1.16-6.47-2.57-6.47-2.57a5.12,5.12,0,0,0-2.13-2.81c-1.75-1.19.13-1.17.13-1.17a4.06,4.06,0,0,1,2.94,2,4.09,4.09,0,0,0,5.59,1.6A4.08,4.08,0,0,1,24.5,37c-4.27-.48-8.75-2.13-8.75-9.49a7.4,7.4,0,0,1,2-5.15,6.9,6.9,0,0,1,.18-5.08s1.62-.52,5.28,2a18.12,18.12,0,0,1,9.62,0c3.66-2.49,5.27-2,5.27-2a6.87,6.87,0,0,1,.19,5.08,7.4,7.4,0,0,1,2,5.15c0,7.38-4.49,9-8.77,9.47a4.6,4.6,0,0,1,1.3,3.56c0,2.57,0,4.64,0,5.27s.35,1.11,1.32.92A19.2,19.2,0,0,0,28,9.27Z"/></g></svg>