<svg xmlns="http://www.w3.org/2000/svg" viewBox="0 0 56 56"><defs><style>.cls-1{fill:none;}</style></defs><title>ic_twitter</title><g id="background"><rect class="cls-1" width="48" height="48"/></g><g id="icon"><circle cx="35.48" cy="20.42" r="7.74"/><path d="M28.87,22c-.41,0-1.13.84-1.13,1.29A16.45,16.45,0,0,1,11.29,39.77a15.88,15.88,0,0,1-2.49-.2A22.09,22.09,0,0,0,43.22,21.22C43.22,19.8,34.16,22,28.87,22Z"/><path d="M28.87,22A22.06,22.06,0,0,1,12,14.24,7.46,7.46,0,0,0,11,18a7.7,7.7,0,0,0,7.7,7.7c4.11,0,11.41,0,11.89-3.8C30,22,29.45,22,28.87,22Z"/><path d="M14.67,24.37a7.66,7.66,0,0,1-3.66-1s0,.07,0,.11a7.69,7.69,0,0,0,7.7,7.7c4.25,0,10.21-3.08,10.21-7.33C28.91,21,18.88,24.37,14.67,24.37Z"/><path d="M19.47,30.09a7.59,7.59,0,0,1-5.87,1A7.69,7.69,0,0,0,21,36.63a10.19,10.19,0,0,0,9-9C30,23.93,21.6,28.72,19.47,30.09Z"/><path d="M41,17.58a14.42,14.42,0,0,1-5.69-1.14c-5.24-2.22-8.43,6.47-.36,6.47A14.6,14.6,0,0,0,47.2,16.17,14.49,14.49,0,0,1,41,17.58Z"/></g></svg>