<svg xmlns="http://www.w3.org/2000/svg" viewBox="0 0 56 56"><defs><style>.cls-1{fill:none;}</style></defs><title>ic_vk</title><g id="background"><rect class="cls-1" width="48" height="48"/></g><g id="icon"><path d="M45.69,18.06H39.46a1.42,1.42,0,0,0-1.24.74s-2.48,4.58-3.28,6.12c-2.15,4.15-3.54,2.85-3.54.92V19.21a2.09,2.09,0,0,0-2.09-2.09H24.62a3.74,3.74,0,0,0-3.31,1.53s2.38-.38,2.38,2.83c0,.79,0,3.08.08,5a1.39,1.39,0,0,1-2.42.95,41.62,41.62,0,0,1-4.73-8.6,1.31,1.31,0,0,0-1.19-.77H9.77a1,1,0,0,0-1,1,1,1,0,0,0,.06.34C10.58,24.08,18,38.89,26.44,38.89H30a1.41,1.41,0,0,0,1.41-1.4V35.34A1.38,1.38,0,0,1,32.78,34a1.4,1.4,0,0,1,.95.37l4.26,4a2,2,0,0,0,1.41.56H45c2.7,0,2.7-1.87,1.23-3.32-1-1-4.77-4.95-4.77-4.95a1.93,1.93,0,0,1-.15-2.51l4-5.3C46.46,21.29,48.53,18.06,45.69,18.06Z"/></g></svg>