<?xml version="1.0" encoding="utf-8"?>
<!-- Generator: Adobe Illustrator 16.0.3, SVG Export Plug-In . SVG Version: 6.00 Build 0)  -->
<!DOCTYPE svg PUBLIC "-//W3C//DTD SVG 1.1//EN" "http://www.w3.org/Graphics/SVG/1.1/DTD/svg11.dtd">
<svg version="1.1" id="Layer_1" xmlns="http://www.w3.org/2000/svg" xmlns:xlink="http://www.w3.org/1999/xlink" x="0px" y="0px"
	 width="841.889px" height="595.281px" viewBox="0 0 841.889 595.281" enable-background="new 0 0 841.889 595.281"
	 xml:space="preserve">
<g>
	<g>
		<linearGradient id="SVGID_1_" gradientUnits="userSpaceOnUse" x1="475.9619" y1="391.8142" x2="320.7582" y2="236.6105">
			<stop  offset="0" style="stop-color:#00C8C8"/>
			<stop  offset="1" style="stop-color:#00963E"/>
		</linearGradient>
		<path fill-rule="evenodd" clip-rule="evenodd" fill="url(#SVGID_1_)" d="M626.576,5.663c3.924,3.5,8.02,6.826,11.743,10.528
			c20.93,20.806,41.824,41.647,62.565,62.641c2.432,2.461,4.626,5.712,5.55,8.985c1.654,5.872-1.377,11.671-6.493,14.534
			c-5.154,2.885-11.423,2.415-15.855-1.883c-5.447-5.285-10.484-10.99-15.263-16.051c-22.082,22.083-43.401,43.404-65.709,65.713
			c4.596,4.244,9.867,8.856,14.851,13.761c10.993,10.817,21.963,21.662,32.706,32.724c7.923,8.159,5.025,20.238-5.365,23.291
			c-5.469,1.606-10.149-0.061-14.04-4.028c-7.176-7.319-14.289-14.7-22.57-23.232c-1.907,2.626-3.025,4.684-4.61,6.271
			c-87.609,87.684-175.258,175.329-262.903,262.977c-8.223,8.224-11.612,8.257-19.776,0.01
			c-5.083-5.137-10.049-10.389-15.536-16.075c-2.047,1.941-3.673,3.419-5.226,4.97c-10.378,10.355-20.736,20.73-31.108,31.092
			c-7.365,7.355-11.116,7.35-18.592,0.024c-1.076-1.055-2.204-2.055-3.521-3.276c-37.027,37.066-73.945,74.022-110.861,110.979
			c-0.5-0.207-1-0.415-1.501-0.622c0-7.67-0.212-15.349,0.164-23c0.083-1.706,2.036-3.505,3.459-4.931
			c30.251-30.333,60.54-60.63,90.87-90.885c1.472-1.468,3.386-2.492,5.095-3.722c0.205-0.853,0.409-1.704,0.614-2.557
			c-1.974-1.2-4.255-2.082-5.865-3.653c-5.663-5.528-5.656-10.096-0.124-15.668c11.537-11.619,23.146-23.167,34.714-34.755
			c0.797-0.799,1.514-1.679,2.639-2.935c-5.609-5.524-11.173-10.977-16.707-16.461c-7.196-7.132-7.213-11.013-0.045-18.182
			c87.64-87.653,175.28-175.306,262.965-262.914c1.868-1.868,4.253-3.22,7.136-5.361c-8.737-8.51-16.278-15.741-23.683-23.108
			c-4.158-4.137-5.319-9.178-3.254-14.705c1.899-5.085,5.836-7.942,11.112-8.704c5.148-0.743,9.125,1.643,12.667,5.207
			c14.094,14.179,28.276,28.269,42.382,42.436c1.463,1.471,2.636,3.231,3.663,4.51c22.054-22.074,43.383-43.421,65.513-65.57
			c-4.208-3.917-8.896-8.066-13.339-12.462c-10.156-10.05-8.889-18.972,3.543-25.914C621.244,5.663,623.911,5.663,626.576,5.663z
			 M397.397,265.152c16.678,16.595,33.753,33.584,50.122,49.872c46.8-46.802,94.008-94.014,140.301-140.307
			c-16.525-16.651-33.477-33.73-49.796-50.173C491.314,171.247,444.239,218.316,397.397,265.152z"/>
		<linearGradient id="SVGID_2_" gradientUnits="userSpaceOnUse" x1="466.0693" y1="271.74" x2="440.6086" y2="246.2793">
			<stop  offset="0" style="stop-color:#00C8C8"/>
			<stop  offset="1" style="stop-color:#00963E"/>
		</linearGradient>
		<path fill-rule="evenodd" clip-rule="evenodd" fill="url(#SVGID_2_)" d="M469.805,266.603c-1.847,2.229-3.446,5.84-6.048,6.836
			c-2.679,1.028-7.193,0.606-9.395-1.114c-5.324-4.163-10.068-9.194-14.468-14.368c-3.202-3.768-2.71-8.266,0.84-11.805
			c3.339-3.328,7.702-4.103,11.312-1.014c5.444,4.659,10.392,9.922,15.306,15.156C468.521,261.54,468.722,263.692,469.805,266.603z"
			/>
		<linearGradient id="SVGID_3_" gradientUnits="userSpaceOnUse" x1="544.0693" y1="193.6272" x2="518.6404" y2="168.1983">
			<stop  offset="0" style="stop-color:#00C8C8"/>
			<stop  offset="1" style="stop-color:#00963E"/>
		</linearGradient>
		<path fill-rule="evenodd" clip-rule="evenodd" fill="url(#SVGID_3_)" d="M547.661,188.584c-1.518,1.9-3.06,5.403-5.673,6.638
			c-2.43,1.149-6.931,1.039-8.895-0.539c-5.599-4.503-10.653-9.791-15.361-15.252c-2.927-3.395-2.287-7.619,0.686-10.979
			c3-3.391,7.471-4.59,10.787-1.861c6.123,5.038,11.465,11.037,16.977,16.785C546.986,184.213,546.934,185.873,547.661,188.584z"/>
		<linearGradient id="SVGID_4_" gradientUnits="userSpaceOnUse" x1="505.4404" y1="232.2712" x2="480.1841" y2="207.015">
			<stop  offset="0" style="stop-color:#00C8C8"/>
			<stop  offset="1" style="stop-color:#00963E"/>
		</linearGradient>
		<path fill-rule="evenodd" clip-rule="evenodd" fill="url(#SVGID_4_)" d="M484.28,204.291c7.924-0.091,24.837,16.425,23.946,22.119
			c-0.435,2.784-2.533,6.421-4.875,7.494c-2.558,1.172-7.187,0.997-9.298-0.656c-5.47-4.28-10.511-9.34-14.756-14.835
			c-1.646-2.129-1.692-6.668-0.618-9.374C479.646,206.607,483.146,205.181,484.28,204.291z"/>
	</g>
</g>
</svg>
