<?xml version="1.0" encoding="UTF-8" standalone="no"?>
<svg width="993px" height="850px" viewBox="0 0 993 850" version="1.1" xmlns="http://www.w3.org/2000/svg" xmlns:xlink="http://www.w3.org/1999/xlink">
    <!-- Generator: Sketch 3.7.2 (28276) - http://www.bohemiancoding.com/sketch -->
    <title>realmLogoWordmark Copy</title>
    <desc>Created with Sketch.</desc>
    <defs></defs>
    <g id="logo-ratio-&amp;-clearance" stroke="none" stroke-width="1" fill="none" fill-rule="evenodd">
        <g id="realmLogoWordmark-Copy">
            <g id="Group" transform="translate(282.000000, 86.000000)">
                <path d="M252.792506,541.4 L280.907597,541.4 L280.907597,673.669102 L252.792506,673.669102 L252.792506,541.4 Z M-2.72848411e-12,673.597342 L27.7375579,673.597342 L27.7375579,619.043735 C27.7375579,610.034679 29.9555192,598.86092 39.1149999,598.86092 C43.3172371,598.86092 46.9565022,599.976758 50.3313042,602.829075 C50.4395018,602.937343 60.438301,579.577526 60.3301035,579.685794 C54.1132285,573.975115 47.6276719,572.618322 42.8981126,572.618322 C32.6293838,572.618322 24.0566418,578.871898 20.6218885,588.224191 L15.1730322,575.391697 L-2.72848411e-12,575.391697 L-2.72848411e-12,673.597342 Z M296.657306,673.597342 L324.387794,673.597342 L324.387794,619.043735 C324.387794,610.034679 329.698685,599.343488 338.85876,599.343488 C348.042601,599.343488 348.821968,612.10901 348.821968,618.199375 C348.869502,618.374556 348.851677,673.596743 348.851677,673.596743 L376.601118,673.596743 L376.601118,619.453346 C376.601118,607.128498 383.44056,599.458339 390.874167,599.458339 C399.926282,599.458339 401.304747,609.54074 401.304747,619.043735 L401.364757,673.596743 L429,673.596743 L429,610.342606 C429,597.703247 424.677444,572.389277 397.372558,572.389277 C384.400731,572.389277 376.870869,576.70067 370.774729,587.608877 C365.07965,577.34591 354.673253,572.347442 344.398583,572.347442 C334.129854,572.347442 323.009805,577.785985 317.279195,589.014148 L311.829804,575.398281 L296.657901,575.398281 L296.657306,673.597342 Z M88.9600389,612.181368 L121.600712,612.181368 C120.821404,598.994325 113.046448,594.326527 105.475351,594.326527 C97.9102545,594.326527 89.8831942,600.489251 88.9600389,612.181368 L88.9600389,612.181368 Z M114.569414,651.816773 C126.690514,651.816773 136.04197,646.106154 136.04197,646.106154 L143.882937,667.988958 C139.938687,670.147641 126.900373,675.63523 111.392647,675.63523 C75.7124008,675.63523 61.3793407,651.876563 61.3793407,623.457351 C61.3793407,596.611948 77.4328077,572.202127 106.027034,572.202127 C134.117704,572.202127 153.258813,595.653395 148.246906,633.280243 L88.582506,633.280243 C89.8831942,646.679035 101.452611,651.816773 114.569414,651.816773 L114.569414,651.816773 Z M181.40896,644.092211 C181.40896,650.7548 192.127709,657.123227 201.089214,652.304728 C209.828976,647.605868 209.103738,640.250818 209.103738,629.855045 C192.552716,629.855643 181.40896,635.867666 181.40896,644.092211 L181.40896,644.092211 Z M221.362743,673.64518 L215.488286,662.176068 C212.682398,666.324801 203.53896,676.485551 186.702026,676.485551 C168.070414,676.485551 153.959097,663.200994 153.959097,647.668051 C153.959097,631.893526 164.875763,611.060204 209.169749,611.060204 C209.169749,600.592072 200.14758,596.696276 190.615974,596.696276 C183.320747,596.696276 172.943821,599.790206 164.090514,608.195318 L155.662213,584.33438 C161.482602,580.69875 174.910866,571.388291 194.908583,571.388291 C224.708372,571.388291 236.882946,589.484147 236.882946,618.645495 L236.882946,673.651159 L221.363337,673.651159 L221.363337,673.64518 L221.362743,673.64518 Z" id="Fill-10" fill="#1C233F"></path>
                <g id="Page-1-Copy-15">
                    <g id="Logo" transform="translate(1.090418, 0.000000)">
                        <path d="M303.497064,20.5457149 C275.894661,7.37184609 245.014154,0 212.418924,0 C155.556905,0 103.913201,22.4343096 65.7876546,58.9688909 C25.2539051,97.8111821 375.240366,54.7868224 303.497064,20.5457149 Z" id="Melon" fill="#FCC397"></path>
                        <path d="M378.367553,80.1347941 C378.610211,80.439304 361.042406,104.016166 308.242866,110.709507 C201.670592,124.219558 18.703767,125.647974 18.9795377,125.039514 C30.2980811,100.066307 46.2720626,77.669969 65.7882143,58.9683546 C88.7829207,66.1773845 113.811709,67.9738268 137.486097,63.5930678 C176.576835,56.4121674 211.355573,33.7318981 250.02218,24.489155 C267.185062,20.3490065 285.883557,19.1396777 303.494214,20.5443544 C332.757196,34.5102295 358.335924,54.9972112 378.367553,80.1347941 Z" id="Peach" fill="#FC9F95"></path>
                        <path d="M422.246807,179.882231 C422.381431,180.74149 181.926473,203.436909 64.7706592,196.82184 C26.6001087,194.666583 4.0734989,171.493464 4.3318438,170.228232 C7.55129465,154.461117 12.5034483,139.328247 18.9797577,125.039029 C52.8265123,106.436534 92.6470733,95.7008567 131.259837,96.1245273 C179.681455,96.6222134 227.184123,112.832563 275.605741,111.623896 C311.565787,110.705559 347.811595,99.1809999 378.367171,80.1343153 C400.885602,108.392406 416.394232,142.52743 422.246807,179.882231 Z" id="Sexy-Salmon" fill="#F77C88"></path>
                        <path d="M424.837847,213.294069 C424.837847,214.4759 424.809204,216.832754 424.809204,216.832754 C424.809204,216.832754 358.022655,233.747397 272.010026,232.738254 C151.536342,231.324797 0.00472670092,211.812245 0.00773227539,211.454921 C0.126770713,197.302777 1.61842265,183.47936 4.3555406,170.112342 C33.2192079,187.995225 68.2235517,196.753522 101.914938,193.067116 C128.705877,190.152097 154.153735,180.198374 178.965396,169.604768 C203.777058,159.011163 228.447342,147.635479 254.672773,141.521049 C293.198002,132.562698 334.409394,135.691011 371.238099,150.266106 C389.154618,157.360719 406.931866,167.560405 422.243299,179.859851 C423.951122,190.75269 424.837847,201.9194 424.837847,213.294069 Z" id="Flamingo" fill="#F25192"></path>
                        <path d="M183.935524,282.548848 C120.204919,294.366432 10.8354357,280.736008 10.5598216,279.893233 C3.70691246,258.938359 0,236.550896 0,213.294069 C0,212.679898 0.00258517954,212.066333 0.00774520826,211.453384 C9.68255402,203.750138 20.9833845,196.881364 32.0153741,191.544094 C59.3011327,178.248764 90.262693,172.703118 120.44668,175.689235 C150.277224,178.675352 178.764687,189.766644 206.3332,201.711112 C229.559595,211.774293 252.635465,222.644921 276.744431,230.156328 C279.106085,230.892127 254.088223,269.540414 183.935524,282.548848 Z" id="Mulberry" fill="#D34CA3"></path>
                        <path d="M417.174464,270.271236 C412.72441,277.817636 370.400724,303.239709 313.02868,307.593558 C237.065347,313.358262 147.326589,290.301696 177.094706,278.568227 C223.961177,260.082741 264.607061,226.879964 313.028679,213.015849 C349.201551,202.610755 389.29914,204.255908 424.809268,216.828795 C424.510221,235.309664 421.870373,253.219116 417.174464,270.271236 Z" id="Grape-Jelly" fill="#9A50A5"></path>
                        <path d="M396.617297,319.597777 C359.937978,383.540807 93.9137892,399.576248 55.0514868,356.563266 C35.2692414,334.668183 19.9564096,308.626962 10.559345,279.891916 C43.2283246,261.143039 81.4707997,253.18006 118.228816,258.22802 C165.802173,264.769038 208.427334,291.430797 255.364494,301.811108 C293.253527,310.200675 333.404591,307.570048 369.879854,294.345816 C386.368634,288.321602 402.718102,280.248569 417.175428,270.26757 C412.37238,287.709958 405.418092,304.255357 396.617297,319.597777 Z" id="Indigo" fill="#59569E"></path>
                        <path d="M396.922824,319.063434 C360.320617,383.300873 291.404167,426.588139 212.418917,426.588139 C150.013855,426.588139 93.8940841,399.566742 55.0310152,356.540562 C61.4802341,359.016285 68.6933168,361.156354 75.3044459,363.026506 C112.274528,373.264621 152.07215,372.980229 188.830167,362.102232 C212.369435,355.134625 234.494934,344.043334 257.610071,335.653767 C301.718678,319.682674 350.26739,314.058227 396.922824,319.063434 L396.922824,319.063434 Z" id="East-Bay" fill="#39477F"></path>
                    </g>
                </g>
            </g>
        </g>
    </g>
</svg>